<![CDATA[<mxfile host="app.diagrams.net" modified="2025-04-20T20:52:00.000Z" agent="Mozilla/5.0" etag="deployment-diagram" version="21.6.8" type="device">
  <diagram id="deployment-diagram" name="Deployment Diagram">
    <mxGraphModel dx="1422" dy="762" grid="1" gridSize="10" guides="1" tooltips="1" connect="1" arrows="1" fold="1" page="1" pageScale="1" pageWidth="850" pageHeight="1100" math="0" shadow="0">
      <root>
        <mxCell id="0" />
        <mxCell id="1" parent="0" />
        
        <!-- Title -->
        <mxCell id="title" value="Deployment Diagram - Habit Tracker Application" style="text;html=1;strokeColor=none;fillColor=none;align=center;verticalAlign=middle;whiteSpace=wrap;rounded=0;fontSize=16;fontStyle=1" vertex="1" parent="1">
          <mxGeometry x="225" y="40" width="400" height="30" as="geometry" />
        </mxCell>
        
        <!-- Client Device Node -->
        <mxCell id="client-device" value="&lt;p style=&quot;margin:0px;margin-top:4px;text-align:center;&quot;&gt;&lt;b&gt;Client Device&lt;/b&gt;&lt;/p&gt;&lt;hr size=&quot;1&quot;&gt;" style="verticalAlign=top;align=left;overflow=fill;fontSize=12;fontFamily=Helvetica;html=1;whiteSpace=wrap;fillColor=#dae8fc;strokeColor=#6c8ebf;" vertex="1" parent="1">
          <mxGeometry x="325" y="100" width="200" height="120" as="geometry" />
        </mxCell>
        
        <!-- Client Device Components -->
        <mxCell id="web-browser" value="Web Browser" style="shape=module;align=left;spacingLeft=20;align=center;verticalAlign=top;whiteSpace=wrap;html=1;" vertex="1" parent="1">
          <mxGeometry x="345" y="130" width="160" height="30" as="geometry" />
        </mxCell>
        
        <mxCell id="react-app" value="React Application" style="shape=module;align=left;spacingLeft=20;align=center;verticalAlign=top;whiteSpace=wrap;html=1;" vertex="1" parent="1">
          <mxGeometry x="345" y="170" width="160" height="30" as="geometry" />
        </mxCell>
        
        <!-- Web Server Node -->
        <mxCell id="web-server" value="&lt;p style=&quot;margin:0px;margin-top:4px;text-align:center;&quot;&gt;&lt;b&gt;Web Server&lt;/b&gt;&lt;/p&gt;&lt;hr size=&quot;1&quot;&gt;" style="verticalAlign=top;align=left;overflow=fill;fontSize=12;fontFamily=Helvetica;html=1;whiteSpace=wrap;fillColor=#d5e8d4;strokeColor=#82b366;" vertex="1" parent="1">
          <mxGeometry x="325" y="300" width="200" height="160" as="geometry" />
        </mxCell>
        
        <!-- Web Server Components -->
        <mxCell id="nodejs" value="Node.js" style="shape=module;align=left;spacingLeft=20;align=center;verticalAlign=top;whiteSpace=wrap;html=1;" vertex="1" parent="1">
          <mxGeometry x="345" y="330" width="160" height="30" as="geometry" />
        </mxCell>
        
        <mxCell id="expressjs" value="Express.js" style="shape=module;align=left;spacingLeft=20;align=center;verticalAlign=top;whiteSpace=wrap;html=1;" vertex="1" parent="1">
          <mxGeometry x="345" y="370" width="160" height="30" as="geometry" />
        </mxCell>
        
        <mxCell id="api-endpoints" value="API Endpoints" style="shape=module;align=left;spacingLeft=20;align=center;verticalAlign=top;whiteSpace=wrap;html=1;" vertex="1" parent="1">
          <mxGeometry x="345" y="410" width="160" height="30" as="geometry" />
        </mxCell>
        
        <!-- Database Server Node -->
        <mxCell id="database-server" value="&lt;p style=&quot;margin:0px;margin-top:4px;text-align:center;&quot;&gt;&lt;b&gt;Database Server&lt;/b&gt;&lt;/p&gt;&lt;hr size=&quot;1&quot;&gt;" style="verticalAlign=top;align=left;overflow=fill;fontSize=12;fontFamily=Helvetica;html=1;whiteSpace=wrap;fillColor=#fff2cc;strokeColor=#d6b656;" vertex="1" parent="1">
          <mxGeometry x="325" y="540" width="200" height="80" as="geometry" />
        </mxCell>
        
        <!-- Database Server Component -->
        <mxCell id="mongodb" value="MongoDB" style="shape=module;align=left;spacingLeft=20;align=center;verticalAlign=top;whiteSpace=wrap;html=1;" vertex="1" parent="1">
          <mxGeometry x="345" y="570" width="160" height="30" as="geometry" />
        </mxCell>
        
        <!-- File Storage Node -->
        <mxCell id="file-storage" value="&lt;p style=&quot;margin:0px;margin-top:4px;text-align:center;&quot;&gt;&lt;b&gt;File Storage&lt;/b&gt;&lt;/p&gt;&lt;hr size=&quot;1&quot;&gt;" style="verticalAlign=top;align=left;overflow=fill;fontSize=12;fontFamily=Helvetica;html=1;whiteSpace=wrap;fillColor=#f8cecc;strokeColor=#b85450;" vertex="1" parent="1">
          <mxGeometry x="325" y="700" width="200" height="80" as="geometry" />
        </mxCell>
        
        <!-- File Storage Component -->
        <mxCell id="user-uploads" value="User Uploads" style="shape=module;align=left;spacingLeft=20;align=center;verticalAlign=top;whiteSpace=wrap;html=1;" vertex="1" parent="1">
          <mxGeometry x="345" y="730" width="160" height="30" as="geometry" />
        </mxCell>
        
        <!-- Connections -->
        <!-- Client to Web Server -->
        <mxCell id="client-to-web" value="HTTPS" style="endArrow=open;endSize=12;dashed=1;html=1;rounded=0;exitX=0.5;exitY=1;exitDx=0;exitDy=0;entryX=0.5;entryY=0;entryDx=0;entryDy=0;" edge="1" parent="1" source="client-device" target="web-server">
          <mxGeometry x="-0.125" width="160" relative="1" as="geometry">
            <mxPoint x="340" y="390" as="sourcePoint" />
            <mxPoint x="500" y="390" as="targetPoint" />
            <mxPoint as="offset" />
          </mxGeometry>
        </mxCell>
        
        <!-- Web Server to Database -->
        <mxCell id="web-to-database" value="Mongoose ODM" style="endArrow=open;endSize=12;dashed=1;html=1;rounded=0;exitX=0.5;exitY=1;exitDx=0;exitDy=0;entryX=0.5;entryY=0;entryDx=0;entryDy=0;" edge="1" parent="1" source="web-server" target="database-server">
          <mxGeometry x="-0.125" width="160" relative="1" as="geometry">
            <mxPoint x="340" y="390" as="sourcePoint" />
            <mxPoint x="500" y="390" as="targetPoint" />
            <mxPoint as="offset" />
          </mxGeometry>
        </mxCell>
        
        <!-- Database to File Storage -->
        <mxCell id="database-to-file" value="File I/O" style="endArrow=open;endSize=12;dashed=1;html=1;rounded=0;exitX=0.5;exitY=1;exitDx=0;exitDy=0;entryX=0.5;entryY=0;entryDx=0;entryDy=0;" edge="1" parent="1" source="database-server" target="file-storage">
          <mxGeometry x="-0.125" width="160" relative="1" as="geometry">
            <mxPoint x="340" y="390" as="sourcePoint" />
            <mxPoint x="500" y="390" as="targetPoint" />
            <mxPoint as="offset" />
          </mxGeometry>
        </mxCell>
        
        <!-- Additional Deployment Details -->
        <!-- Client Device Details -->
        <mxCell id="client-device-details" value="&lt;div&gt;&lt;b&gt;Client Device Requirements:&lt;/b&gt;&lt;/div&gt;&lt;div&gt;- Any device with modern web browser&lt;/div&gt;&lt;div&gt;- Internet connection&lt;/div&gt;&lt;div&gt;- Supports HTML5, CSS3, JavaScript&lt;/div&gt;" style="shape=note;whiteSpace=wrap;html=1;backgroundOutline=1;darkOpacity=0.05;align=left;spacingLeft=4;fillColor=#f5f5f5;strokeColor=#666666;fontColor=#333333;" vertex="1" parent="1">
          <mxGeometry x="580" y="100" width="220" height="80" as="geometry" />
        </mxCell>
        
        <!-- Web Server Details -->
        <mxCell id="web-server-details" value="&lt;div&gt;&lt;b&gt;Web Server Requirements:&lt;/b&gt;&lt;/div&gt;&lt;div&gt;- Node.js runtime environment&lt;/div&gt;&lt;div&gt;- Express.js framework&lt;/div&gt;&lt;div&gt;- RESTful API architecture&lt;/div&gt;&lt;div&gt;- JWT authentication&lt;/div&gt;&lt;div&gt;- CORS enabled&lt;/div&gt;" style="shape=note;whiteSpace=wrap;html=1;backgroundOutline=1;darkOpacity=0.05;align=left;spacingLeft=4;fillColor=#f5f5f5;strokeColor=#666666;fontColor=#333333;" vertex="1" parent="1">
          <mxGeometry x="580" y="300" width="220" height="100" as="geometry" />
        </mxCell>
        
        <!-- Database Server Details -->
        <mxCell id="database-server-details" value="&lt;div&gt;&lt;b&gt;Database Server Requirements:&lt;/b&gt;&lt;/div&gt;&lt;div&gt;- MongoDB database&lt;/div&gt;&lt;div&gt;- Mongoose ODM&lt;/div&gt;&lt;div&gt;- Data persistence&lt;/div&gt;" style="shape=note;whiteSpace=wrap;html=1;backgroundOutline=1;darkOpacity=0.05;align=left;spacingLeft=4;fillColor=#f5f5f5;strokeColor=#666666;fontColor=#333333;" vertex="1" parent="1">
          <mxGeometry x="580" y="540" width="220" height="80" as="geometry" />
        </mxCell>
        
        <!-- File Storage Details -->
        <mxCell id="file-storage-details" value="&lt;div&gt;&lt;b&gt;File Storage Requirements:&lt;/b&gt;&lt;/div&gt;&lt;div&gt;- Disk storage for user uploads&lt;/div&gt;&lt;div&gt;- Profile pictures&lt;/div&gt;&lt;div&gt;- Minimum 1GB storage&lt;/div&gt;" style="shape=note;whiteSpace=wrap;html=1;backgroundOutline=1;darkOpacity=0.05;align=left;spacingLeft=4;fillColor=#f5f5f5;strokeColor=#666666;fontColor=#333333;" vertex="1" parent="1">
          <mxGeometry x="580" y="700" width="220" height="80" as="geometry" />
        </mxCell>
        
        <!-- Connection from Client Details to Client -->
        <mxCell id="client-details-to-client" value="" style="endArrow=none;dashed=1;html=1;rounded=0;exitX=0;exitY=0.5;exitDx=0;exitDy=0;exitPerimeter=0;entryX=1;entryY=0.5;entryDx=0;entryDy=0;" edge="1" parent="1" source="client-device-details" target="client-device">
          <mxGeometry width="50" height="50" relative="1" as="geometry">
            <mxPoint x="400" y="410" as="sourcePoint" />
            <mxPoint x="450" y="360" as="targetPoint" />
          </mxGeometry>
        </mxCell>
        
        <!-- Connection from Web Server Details to Web Server -->
        <mxCell id="web-details-to-web" value="" style="endArrow=none;dashed=1;html=1;rounded=0;exitX=0;exitY=0.5;exitDx=0;exitDy=0;exitPerimeter=0;entryX=1;entryY=0.5;entryDx=0;entryDy=0;" edge="1" parent="1" source="web-server-details" target="web-server">
          <mxGeometry width="50" height="50" relative="1" as="geometry">
            <mxPoint x="400" y="410" as="sourcePoint" />
            <mxPoint x="450" y="360" as="targetPoint" />
          </mxGeometry>
        </mxCell>
        
        <!-- Connection from Database Details to Database -->
        <mxCell id="db-details-to-db" value="" style="endArrow=none;dashed=1;html=1;rounded=0;exitX=0;exitY=0.5;exitDx=0;exitDy=0;exitPerimeter=0;entryX=1;entryY=0.5;entryDx=0;entryDy=0;" edge="1" parent="1" source="database-server-details" target="database-server">
          <mxGeometry width="50" height="50" relative="1" as="geometry">
            <mxPoint x="400" y="410" as="sourcePoint" />
            <mxPoint x="450" y="360" as="targetPoint" />
          </mxGeometry>
        </mxCell>
        
        <!-- Connection from File Storage Details to File Storage -->
        <mxCell id="file-details-to-file" value="" style="endArrow=none;dashed=1;html=1;rounded=0;exitX=0;exitY=0.5;exitDx=0;exitDy=0;exitPerimeter=0;entryX=1;entryY=0.5;entryDx=0;entryDy=0;" edge="1" parent="1" source="file-storage-details" target="file-storage">
          <mxGeometry width="50" height="50" relative="1" as="geometry">
            <mxPoint x="400" y="410" as="sourcePoint" />
            <mxPoint x="450" y="360" as="targetPoint" />
          </mxGeometry>
        </mxCell>
      </root>
    </mxGraphModel>
  </diagram>
</mxfile>]]>